<mxfile host="app.diagrams.net" modified="2023-03-30T00:07:33.393Z" agent="Mozilla/5.0 (Windows NT 10.0; Win64; x64) AppleWebKit/537.36 (KHTML, like Gecko) Chrome/111.0.0.0 Safari/537.36" etag="If_fsc1SsLkCZa6YGVjb" version="21.1.2" type="github">
  <diagram name="페이지-1" id="_VfoAWExSEsmhePzYeGy">
    <mxGraphModel dx="1434" dy="764" grid="1" gridSize="10" guides="1" tooltips="1" connect="1" arrows="1" fold="1" page="1" pageScale="1" pageWidth="827" pageHeight="1169" math="0" shadow="0">
      <root>
        <mxCell id="0" />
        <mxCell id="1" parent="0" />
        <mxCell id="8HjG-4PC_yz-jviVRDcU-1" value="To-dolist" style="shape=umlFrame;whiteSpace=wrap;html=1;" parent="1" vertex="1">
          <mxGeometry x="78" y="30" width="700" height="629" as="geometry" />
        </mxCell>
        <mxCell id="8HjG-4PC_yz-jviVRDcU-2" style="rounded=0;orthogonalLoop=1;jettySize=auto;html=1;entryX=0;entryY=0.5;entryDx=0;entryDy=0;endArrow=none;endFill=0;" parent="1" target="8HjG-4PC_yz-jviVRDcU-20" edge="1">
          <mxGeometry relative="1" as="geometry">
            <mxPoint x="80" y="280" as="sourcePoint" />
          </mxGeometry>
        </mxCell>
        <mxCell id="8HjG-4PC_yz-jviVRDcU-3" style="edgeStyle=none;rounded=0;orthogonalLoop=1;jettySize=auto;html=1;entryX=0;entryY=0.5;entryDx=0;entryDy=0;endArrow=none;endFill=0;" parent="1" target="8HjG-4PC_yz-jviVRDcU-12" edge="1">
          <mxGeometry relative="1" as="geometry">
            <mxPoint x="80" y="280" as="sourcePoint" />
          </mxGeometry>
        </mxCell>
        <mxCell id="8HjG-4PC_yz-jviVRDcU-5" value="User" style="shape=umlActor;verticalLabelPosition=bottom;verticalAlign=top;html=1;outlineConnect=0;" parent="1" vertex="1">
          <mxGeometry x="40" y="250" width="30" height="60" as="geometry" />
        </mxCell>
        <mxCell id="8HjG-4PC_yz-jviVRDcU-6" value="DB" style="html=1;" parent="1" vertex="1">
          <mxGeometry x="820" y="350" width="110" height="50" as="geometry" />
        </mxCell>
        <mxCell id="8HjG-4PC_yz-jviVRDcU-7" style="edgeStyle=none;rounded=0;orthogonalLoop=1;jettySize=auto;html=1;entryX=0;entryY=0.5;entryDx=0;entryDy=0;endArrow=none;endFill=0;exitX=1;exitY=0.5;exitDx=0;exitDy=0;" parent="1" source="8HjG-4PC_yz-jviVRDcU-8" target="8HjG-4PC_yz-jviVRDcU-6" edge="1">
          <mxGeometry relative="1" as="geometry" />
        </mxCell>
        <mxCell id="8HjG-4PC_yz-jviVRDcU-8" value="인증" style="rounded=1;whiteSpace=wrap;html=1;arcSize=40;fontColor=#000000;fillColor=#ffffc0;strokeColor=#ff0000;" parent="1" vertex="1">
          <mxGeometry x="665" y="260" width="60" height="40" as="geometry" />
        </mxCell>
        <mxCell id="8HjG-4PC_yz-jviVRDcU-9" value="&amp;lt;exclude&amp;gt;" style="edgeStyle=none;rounded=0;orthogonalLoop=1;jettySize=auto;html=1;entryX=0.5;entryY=1;entryDx=0;entryDy=0;dashed=1;endArrow=classic;endFill=1;exitX=0;exitY=0.5;exitDx=0;exitDy=0;" parent="1" source="8HjG-4PC_yz-jviVRDcU-10" target="8HjG-4PC_yz-jviVRDcU-20" edge="1">
          <mxGeometry relative="1" as="geometry" />
        </mxCell>
        <mxCell id="8HjG-4PC_yz-jviVRDcU-10" value="실패" style="rounded=1;whiteSpace=wrap;html=1;arcSize=40;fontColor=#000000;fillColor=#ffffc0;strokeColor=#ff0000;" parent="1" vertex="1">
          <mxGeometry x="320" y="220" width="60" height="40" as="geometry" />
        </mxCell>
        <mxCell id="8HjG-4PC_yz-jviVRDcU-11" value="&amp;lt;include&amp;gt;" style="edgeStyle=none;rounded=0;orthogonalLoop=1;jettySize=auto;html=1;entryX=0;entryY=0.5;entryDx=0;entryDy=0;dashed=1;endArrow=classic;endFill=1;exitX=1;exitY=0.5;exitDx=0;exitDy=0;" parent="1" source="8HjG-4PC_yz-jviVRDcU-12" target="8HjG-4PC_yz-jviVRDcU-8" edge="1">
          <mxGeometry relative="1" as="geometry">
            <mxPoint x="340" y="210" as="sourcePoint" />
          </mxGeometry>
        </mxCell>
        <mxCell id="8HjG-4PC_yz-jviVRDcU-12" value="회원가입" style="rounded=1;whiteSpace=wrap;html=1;arcSize=40;fontColor=#000000;fillColor=#ffffc0;strokeColor=#ff0000;" parent="1" vertex="1">
          <mxGeometry x="158" y="260" width="120" height="40" as="geometry" />
        </mxCell>
        <mxCell id="8HjG-4PC_yz-jviVRDcU-13" value="&amp;lt;exclude&amp;gt;" style="edgeStyle=none;rounded=0;orthogonalLoop=1;jettySize=auto;html=1;entryX=0.5;entryY=1;entryDx=0;entryDy=0;dashed=1;endArrow=classic;endFill=1;exitX=0;exitY=0.5;exitDx=0;exitDy=0;" parent="1" source="8HjG-4PC_yz-jviVRDcU-14" target="8HjG-4PC_yz-jviVRDcU-12" edge="1">
          <mxGeometry relative="1" as="geometry" />
        </mxCell>
        <mxCell id="8HjG-4PC_yz-jviVRDcU-14" value="실패" style="rounded=1;whiteSpace=wrap;html=1;arcSize=40;fontColor=#000000;fillColor=#ffffc0;strokeColor=#ff0000;" parent="1" vertex="1">
          <mxGeometry x="320" y="294" width="60" height="40" as="geometry" />
        </mxCell>
        <mxCell id="8HjG-4PC_yz-jviVRDcU-19" value="&amp;lt;include&amp;gt;" style="edgeStyle=none;rounded=0;orthogonalLoop=1;jettySize=auto;html=1;entryX=0;entryY=0.5;entryDx=0;entryDy=0;dashed=1;endArrow=classic;endFill=1;exitX=1;exitY=0.5;exitDx=0;exitDy=0;" parent="1" source="8HjG-4PC_yz-jviVRDcU-20" target="8HjG-4PC_yz-jviVRDcU-8" edge="1">
          <mxGeometry relative="1" as="geometry" />
        </mxCell>
        <mxCell id="8HjG-4PC_yz-jviVRDcU-20" value="일반 로그인" style="rounded=1;whiteSpace=wrap;html=1;arcSize=40;fontColor=#000000;fillColor=#ffffc0;strokeColor=#ff0000;" parent="1" vertex="1">
          <mxGeometry x="158" y="160" width="120" height="40" as="geometry" />
        </mxCell>
        <mxCell id="8HjG-4PC_yz-jviVRDcU-21" style="edgeStyle=none;rounded=0;orthogonalLoop=1;jettySize=auto;html=1;entryX=0;entryY=0.5;entryDx=0;entryDy=0;endArrow=none;endFill=0;exitX=1;exitY=0.5;exitDx=0;exitDy=0;" parent="1" source="8HjG-4PC_yz-jviVRDcU-23" target="8HjG-4PC_yz-jviVRDcU-6" edge="1">
          <mxGeometry relative="1" as="geometry" />
        </mxCell>
        <mxCell id="8HjG-4PC_yz-jviVRDcU-24" style="edgeStyle=none;rounded=0;orthogonalLoop=1;jettySize=auto;html=1;entryX=0;entryY=0.5;entryDx=0;entryDy=0;endArrow=none;endFill=0;exitX=1;exitY=0.5;exitDx=0;exitDy=0;" parent="1" source="8HjG-4PC_yz-jviVRDcU-26" target="8HjG-4PC_yz-jviVRDcU-6" edge="1">
          <mxGeometry relative="1" as="geometry" />
        </mxCell>
        <mxCell id="8HjG-4PC_yz-jviVRDcU-26" value="To-Do 삭제" style="rounded=1;whiteSpace=wrap;html=1;arcSize=40;fontColor=#000000;fillColor=#ffffc0;strokeColor=#ff0000;" parent="1" vertex="1">
          <mxGeometry x="640" y="420" width="110" height="40" as="geometry" />
        </mxCell>
        <mxCell id="8HjG-4PC_yz-jviVRDcU-30" style="edgeStyle=none;rounded=0;orthogonalLoop=1;jettySize=auto;html=1;endArrow=block;endFill=0;" parent="1" edge="1">
          <mxGeometry relative="1" as="geometry">
            <mxPoint x="55" y="230" as="targetPoint" />
            <mxPoint x="55" y="180" as="sourcePoint" />
          </mxGeometry>
        </mxCell>
        <mxCell id="8HjG-4PC_yz-jviVRDcU-31" value="Regular" style="shape=umlActor;verticalLabelPosition=bottom;verticalAlign=top;html=1;outlineConnect=0;" parent="1" vertex="1">
          <mxGeometry x="40" y="80" width="30" height="60" as="geometry" />
        </mxCell>
        <mxCell id="8HjG-4PC_yz-jviVRDcU-32" style="edgeStyle=none;rounded=0;orthogonalLoop=1;jettySize=auto;html=1;endArrow=block;endFill=0;" parent="1" edge="1">
          <mxGeometry relative="1" as="geometry">
            <mxPoint x="54.41" y="360" as="targetPoint" />
            <mxPoint x="54" y="530" as="sourcePoint" />
          </mxGeometry>
        </mxCell>
        <mxCell id="8HjG-4PC_yz-jviVRDcU-33" value="Admin" style="shape=umlActor;verticalLabelPosition=bottom;verticalAlign=top;html=1;outlineConnect=0;" parent="1" vertex="1">
          <mxGeometry x="40" y="555" width="30" height="60" as="geometry" />
        </mxCell>
        <mxCell id="8HjG-4PC_yz-jviVRDcU-34" style="edgeStyle=none;rounded=0;orthogonalLoop=1;jettySize=auto;html=1;endArrow=none;endFill=0;exitX=0;exitY=0.5;exitDx=0;exitDy=0;" parent="1" source="8HjG-4PC_yz-jviVRDcU-38" edge="1">
          <mxGeometry relative="1" as="geometry">
            <mxPoint x="80" y="280" as="targetPoint" />
          </mxGeometry>
        </mxCell>
        <mxCell id="8HjG-4PC_yz-jviVRDcU-36" value="&amp;lt;include&amp;gt;" style="edgeStyle=none;rounded=0;orthogonalLoop=1;jettySize=auto;html=1;entryX=0;entryY=0.5;entryDx=0;entryDy=0;dashed=1;endArrow=classic;endFill=1;exitX=1;exitY=0.5;exitDx=0;exitDy=0;" parent="1" source="8HjG-4PC_yz-jviVRDcU-70" target="8HjG-4PC_yz-jviVRDcU-52" edge="1">
          <mxGeometry x="0.145" y="3" relative="1" as="geometry">
            <mxPoint as="offset" />
          </mxGeometry>
        </mxCell>
        <mxCell id="8HjG-4PC_yz-jviVRDcU-37" value="&amp;lt;include&amp;gt;" style="edgeStyle=none;rounded=0;orthogonalLoop=1;jettySize=auto;html=1;entryX=0;entryY=0.5;entryDx=0;entryDy=0;dashed=1;endArrow=classic;endFill=1;exitX=1;exitY=0.5;exitDx=0;exitDy=0;" parent="1" source="8HjG-4PC_yz-jviVRDcU-75" target="8HjG-4PC_yz-jviVRDcU-26" edge="1">
          <mxGeometry relative="1" as="geometry" />
        </mxCell>
        <mxCell id="8HjG-4PC_yz-jviVRDcU-38" value="프로필 기능" style="rounded=1;whiteSpace=wrap;html=1;arcSize=40;fontColor=#000000;fillColor=#ffffc0;strokeColor=#ff0000;" parent="1" vertex="1">
          <mxGeometry x="158" y="570" width="120" height="40" as="geometry" />
        </mxCell>
        <mxCell id="8HjG-4PC_yz-jviVRDcU-43" style="edgeStyle=none;rounded=0;orthogonalLoop=1;jettySize=auto;html=1;endArrow=none;endFill=0;exitX=0;exitY=0.5;exitDx=0;exitDy=0;" parent="1" source="8HjG-4PC_yz-jviVRDcU-45" edge="1">
          <mxGeometry relative="1" as="geometry">
            <mxPoint x="80" y="280" as="targetPoint" />
          </mxGeometry>
        </mxCell>
        <mxCell id="8HjG-4PC_yz-jviVRDcU-77" value="&amp;lt;include&amp;gt;" style="rounded=0;orthogonalLoop=1;jettySize=auto;html=1;entryX=0;entryY=0.5;entryDx=0;entryDy=0;exitX=1;exitY=0.5;exitDx=0;exitDy=0;dashed=1;" parent="1" source="8HjG-4PC_yz-jviVRDcU-45" target="8HjG-4PC_yz-jviVRDcU-71" edge="1">
          <mxGeometry relative="1" as="geometry" />
        </mxCell>
        <mxCell id="8HjG-4PC_yz-jviVRDcU-45" value="To-Do 기능" style="rounded=1;whiteSpace=wrap;html=1;arcSize=40;fontColor=#000000;fillColor=#ffffc0;strokeColor=#ff0000;" parent="1" vertex="1">
          <mxGeometry x="158" y="400" width="120" height="40" as="geometry" />
        </mxCell>
        <mxCell id="8HjG-4PC_yz-jviVRDcU-46" value="Kakao API" style="html=1;" parent="1" vertex="1">
          <mxGeometry x="820" y="75" width="110" height="50" as="geometry" />
        </mxCell>
        <mxCell id="8HjG-4PC_yz-jviVRDcU-47" style="edgeStyle=none;rounded=0;orthogonalLoop=1;jettySize=auto;html=1;entryX=0;entryY=0.5;entryDx=0;entryDy=0;endArrow=none;endFill=0;exitX=1;exitY=0.5;exitDx=0;exitDy=0;" parent="1" source="8HjG-4PC_yz-jviVRDcU-48" target="8HjG-4PC_yz-jviVRDcU-46" edge="1">
          <mxGeometry relative="1" as="geometry" />
        </mxCell>
        <mxCell id="8HjG-4PC_yz-jviVRDcU-48" value="소셜 인증" style="rounded=1;whiteSpace=wrap;html=1;arcSize=40;fontColor=#000000;fillColor=#ffffc0;strokeColor=#ff0000;" parent="1" vertex="1">
          <mxGeometry x="645" y="80" width="60" height="40" as="geometry" />
        </mxCell>
        <mxCell id="8HjG-4PC_yz-jviVRDcU-51" style="edgeStyle=none;rounded=0;orthogonalLoop=1;jettySize=auto;html=1;entryX=0;entryY=0.5;entryDx=0;entryDy=0;endArrow=none;endFill=0;exitX=1;exitY=0.5;exitDx=0;exitDy=0;" parent="1" source="8HjG-4PC_yz-jviVRDcU-52" target="8HjG-4PC_yz-jviVRDcU-6" edge="1">
          <mxGeometry relative="1" as="geometry" />
        </mxCell>
        <mxCell id="8HjG-4PC_yz-jviVRDcU-52" value="To-Do 생성/수정" style="rounded=1;whiteSpace=wrap;html=1;arcSize=40;fontColor=#000000;fillColor=#ffffc0;strokeColor=#ff0000;" parent="1" vertex="1">
          <mxGeometry x="640" y="370" width="110" height="40" as="geometry" />
        </mxCell>
        <mxCell id="8HjG-4PC_yz-jviVRDcU-58" style="edgeStyle=none;rounded=0;orthogonalLoop=1;jettySize=auto;html=1;endArrow=none;endFill=0;exitX=0;exitY=0.5;exitDx=0;exitDy=0;" parent="1" source="8HjG-4PC_yz-jviVRDcU-60" edge="1">
          <mxGeometry relative="1" as="geometry">
            <mxPoint x="80" y="280" as="targetPoint" />
          </mxGeometry>
        </mxCell>
        <mxCell id="8HjG-4PC_yz-jviVRDcU-59" value="&amp;lt;include&amp;gt;" style="edgeStyle=none;rounded=0;orthogonalLoop=1;jettySize=auto;html=1;entryX=0;entryY=0.5;entryDx=0;entryDy=0;endArrow=classic;endFill=1;exitX=1;exitY=0.5;exitDx=0;exitDy=0;dashed=1;" parent="1" source="8HjG-4PC_yz-jviVRDcU-60" target="8HjG-4PC_yz-jviVRDcU-48" edge="1">
          <mxGeometry relative="1" as="geometry" />
        </mxCell>
        <mxCell id="8HjG-4PC_yz-jviVRDcU-60" value="소셜 로그인" style="rounded=1;whiteSpace=wrap;html=1;arcSize=40;fontColor=#000000;fillColor=#ffffc0;strokeColor=#ff0000;" parent="1" vertex="1">
          <mxGeometry x="158" y="80" width="120" height="40" as="geometry" />
        </mxCell>
        <mxCell id="8HjG-4PC_yz-jviVRDcU-61" value="&amp;lt;exclude&amp;gt;" style="edgeStyle=none;rounded=0;orthogonalLoop=1;jettySize=auto;html=1;entryX=0.5;entryY=1;entryDx=0;entryDy=0;dashed=1;endArrow=classic;endFill=1;" parent="1" source="8HjG-4PC_yz-jviVRDcU-62" target="8HjG-4PC_yz-jviVRDcU-60" edge="1">
          <mxGeometry relative="1" as="geometry">
            <Array as="points" />
          </mxGeometry>
        </mxCell>
        <mxCell id="8HjG-4PC_yz-jviVRDcU-62" value="실패" style="rounded=1;whiteSpace=wrap;html=1;arcSize=40;fontColor=#000000;fillColor=#ffffc0;strokeColor=#ff0000;" parent="1" vertex="1">
          <mxGeometry x="320" y="130" width="60" height="40" as="geometry" />
        </mxCell>
        <mxCell id="8HjG-4PC_yz-jviVRDcU-64" value="&amp;lt;include&amp;gt;" style="edgeStyle=none;rounded=0;orthogonalLoop=1;jettySize=auto;html=1;entryX=0;entryY=0.5;entryDx=0;entryDy=0;endArrow=classic;endFill=1;dashed=1;exitX=1;exitY=0.5;exitDx=0;exitDy=0;" parent="1" source="8HjG-4PC_yz-jviVRDcU-71" target="8HjG-4PC_yz-jviVRDcU-23" edge="1">
          <mxGeometry relative="1" as="geometry">
            <mxPoint x="340" y="420" as="sourcePoint" />
          </mxGeometry>
        </mxCell>
        <mxCell id="8HjG-4PC_yz-jviVRDcU-23" value="To-Do 조회" style="rounded=1;whiteSpace=wrap;html=1;arcSize=40;fontColor=#000000;fillColor=#ffffc0;strokeColor=#ff0000;" parent="1" vertex="1">
          <mxGeometry x="640" y="320" width="110" height="40" as="geometry" />
        </mxCell>
        <mxCell id="GVm4qF-34OVUIjvNt8GN-1" value="&amp;lt;include&amp;gt;" style="rounded=0;orthogonalLoop=1;jettySize=auto;html=1;entryX=0;entryY=0.5;entryDx=0;entryDy=0;dashed=1;exitX=1;exitY=0.5;exitDx=0;exitDy=0;" edge="1" parent="1" source="8HjG-4PC_yz-jviVRDcU-70" target="8HjG-4PC_yz-jviVRDcU-88">
          <mxGeometry relative="1" as="geometry" />
        </mxCell>
        <mxCell id="8HjG-4PC_yz-jviVRDcU-70" value="작성/수정" style="rounded=1;whiteSpace=wrap;html=1;arcSize=40;fontColor=#000000;fillColor=#ffffc0;strokeColor=#ff0000;" parent="1" vertex="1">
          <mxGeometry x="407" y="400" width="66" height="40" as="geometry" />
        </mxCell>
        <mxCell id="8HjG-4PC_yz-jviVRDcU-71" value="조회" style="rounded=1;whiteSpace=wrap;html=1;arcSize=40;fontColor=#000000;fillColor=#ffffc0;strokeColor=#ff0000;" parent="1" vertex="1">
          <mxGeometry x="407" y="350" width="66" height="40" as="geometry" />
        </mxCell>
        <mxCell id="8HjG-4PC_yz-jviVRDcU-72" value="완료" style="rounded=1;whiteSpace=wrap;html=1;arcSize=40;fontColor=#000000;fillColor=#ffffc0;strokeColor=#ff0000;" parent="1" vertex="1">
          <mxGeometry x="407" y="450" width="66" height="40" as="geometry" />
        </mxCell>
        <mxCell id="8HjG-4PC_yz-jviVRDcU-73" value="공유" style="rounded=1;whiteSpace=wrap;html=1;arcSize=40;fontColor=#000000;fillColor=#ffffc0;strokeColor=#ff0000;" parent="1" vertex="1">
          <mxGeometry x="520" y="290" width="66" height="40" as="geometry" />
        </mxCell>
        <mxCell id="8HjG-4PC_yz-jviVRDcU-75" value="삭제" style="rounded=1;whiteSpace=wrap;html=1;arcSize=40;fontColor=#000000;fillColor=#ffffc0;strokeColor=#ff0000;" parent="1" vertex="1">
          <mxGeometry x="407" y="500" width="66" height="40" as="geometry" />
        </mxCell>
        <mxCell id="8HjG-4PC_yz-jviVRDcU-76" value="&amp;lt;include&amp;gt;" style="edgeStyle=none;rounded=0;orthogonalLoop=1;jettySize=auto;html=1;entryX=0;entryY=0.5;entryDx=0;entryDy=0;dashed=1;endArrow=classic;endFill=1;exitX=1;exitY=0.5;exitDx=0;exitDy=0;" parent="1" source="8HjG-4PC_yz-jviVRDcU-72" target="8HjG-4PC_yz-jviVRDcU-52" edge="1">
          <mxGeometry x="0.145" y="3" relative="1" as="geometry">
            <mxPoint x="516" y="430" as="sourcePoint" />
            <mxPoint x="630" y="400" as="targetPoint" />
            <mxPoint as="offset" />
          </mxGeometry>
        </mxCell>
        <mxCell id="8HjG-4PC_yz-jviVRDcU-79" value="&amp;lt;include&amp;gt;" style="rounded=0;orthogonalLoop=1;jettySize=auto;html=1;entryX=0;entryY=0.5;entryDx=0;entryDy=0;exitX=1;exitY=0.5;exitDx=0;exitDy=0;dashed=1;" parent="1" source="8HjG-4PC_yz-jviVRDcU-45" target="8HjG-4PC_yz-jviVRDcU-70" edge="1">
          <mxGeometry relative="1" as="geometry">
            <mxPoint x="350" y="430" as="sourcePoint" />
            <mxPoint x="450" y="380" as="targetPoint" />
          </mxGeometry>
        </mxCell>
        <mxCell id="8HjG-4PC_yz-jviVRDcU-81" style="rounded=0;orthogonalLoop=1;jettySize=auto;html=1;entryX=0;entryY=0.5;entryDx=0;entryDy=0;exitX=1;exitY=0.5;exitDx=0;exitDy=0;dashed=1;" parent="1" source="8HjG-4PC_yz-jviVRDcU-45" target="8HjG-4PC_yz-jviVRDcU-72" edge="1">
          <mxGeometry relative="1" as="geometry">
            <mxPoint x="350" y="430" as="sourcePoint" />
            <mxPoint x="450" y="430" as="targetPoint" />
          </mxGeometry>
        </mxCell>
        <mxCell id="8HjG-4PC_yz-jviVRDcU-90" value="&amp;lt;include&amp;gt;" style="edgeLabel;html=1;align=center;verticalAlign=middle;resizable=0;points=[];" parent="8HjG-4PC_yz-jviVRDcU-81" vertex="1" connectable="0">
          <mxGeometry x="0.3281" y="-2" relative="1" as="geometry">
            <mxPoint as="offset" />
          </mxGeometry>
        </mxCell>
        <mxCell id="8HjG-4PC_yz-jviVRDcU-82" value="&amp;lt;include&amp;gt;" style="rounded=0;orthogonalLoop=1;jettySize=auto;html=1;entryX=0;entryY=0.5;entryDx=0;entryDy=0;exitX=1;exitY=0.5;exitDx=0;exitDy=0;dashed=1;" parent="1" source="8HjG-4PC_yz-jviVRDcU-45" target="8HjG-4PC_yz-jviVRDcU-75" edge="1">
          <mxGeometry relative="1" as="geometry">
            <mxPoint x="350" y="430" as="sourcePoint" />
            <mxPoint x="450" y="480" as="targetPoint" />
          </mxGeometry>
        </mxCell>
        <mxCell id="8HjG-4PC_yz-jviVRDcU-83" value="&amp;lt;include&amp;gt;" style="rounded=0;orthogonalLoop=1;jettySize=auto;html=1;entryX=0;entryY=0.5;entryDx=0;entryDy=0;exitX=1;exitY=0.5;exitDx=0;exitDy=0;dashed=1;" parent="1" source="8HjG-4PC_yz-jviVRDcU-71" target="8HjG-4PC_yz-jviVRDcU-73" edge="1">
          <mxGeometry relative="1" as="geometry">
            <mxPoint x="350" y="430" as="sourcePoint" />
            <mxPoint x="450" y="380" as="targetPoint" />
          </mxGeometry>
        </mxCell>
        <mxCell id="8HjG-4PC_yz-jviVRDcU-87" style="rounded=0;orthogonalLoop=1;jettySize=auto;html=1;entryX=0;entryY=0.5;entryDx=0;entryDy=0;endArrow=none;endFill=0;exitX=1;exitY=0.5;exitDx=0;exitDy=0;" parent="1" source="8HjG-4PC_yz-jviVRDcU-85" target="8HjG-4PC_yz-jviVRDcU-46" edge="1">
          <mxGeometry relative="1" as="geometry" />
        </mxCell>
        <mxCell id="8HjG-4PC_yz-jviVRDcU-85" value="카카오톡 공유 API" style="rounded=1;whiteSpace=wrap;html=1;arcSize=40;fontColor=#000000;fillColor=#ffffc0;strokeColor=#ff0000;" parent="1" vertex="1">
          <mxGeometry x="622.5" y="135" width="105" height="40" as="geometry" />
        </mxCell>
        <mxCell id="GVm4qF-34OVUIjvNt8GN-2" value="&amp;lt;include&amp;gt;" style="edgeStyle=orthogonalEdgeStyle;rounded=0;orthogonalLoop=1;jettySize=auto;html=1;entryX=0.5;entryY=0;entryDx=0;entryDy=0;dashed=1;" edge="1" parent="1" source="8HjG-4PC_yz-jviVRDcU-88" target="8HjG-4PC_yz-jviVRDcU-89">
          <mxGeometry relative="1" as="geometry" />
        </mxCell>
        <mxCell id="8HjG-4PC_yz-jviVRDcU-88" value="회원 등급 조회" style="rounded=1;whiteSpace=wrap;html=1;arcSize=40;fontColor=#000000;fillColor=#ffffc0;strokeColor=#ff0000;" parent="1" vertex="1">
          <mxGeometry x="640" y="470" width="110" height="40" as="geometry" />
        </mxCell>
        <mxCell id="8HjG-4PC_yz-jviVRDcU-89" value="회원 등급 수정" style="rounded=1;whiteSpace=wrap;html=1;arcSize=40;fontColor=#000000;fillColor=#ffffc0;strokeColor=#ff0000;" parent="1" vertex="1">
          <mxGeometry x="640" y="555" width="110" height="40" as="geometry" />
        </mxCell>
        <mxCell id="8HjG-4PC_yz-jviVRDcU-91" value="&amp;lt;exclude&amp;gt;" style="rounded=0;orthogonalLoop=1;jettySize=auto;html=1;entryX=1;entryY=0.5;entryDx=0;entryDy=0;exitX=0;exitY=0.5;exitDx=0;exitDy=0;dashed=1;" parent="1" source="8HjG-4PC_yz-jviVRDcU-85" target="8HjG-4PC_yz-jviVRDcU-73" edge="1">
          <mxGeometry relative="1" as="geometry">
            <mxPoint x="550" y="180" as="sourcePoint" />
            <mxPoint x="630" y="130" as="targetPoint" />
          </mxGeometry>
        </mxCell>
        <mxCell id="8HjG-4PC_yz-jviVRDcU-92" value="&amp;lt;include&amp;gt;" style="edgeStyle=none;rounded=0;orthogonalLoop=1;jettySize=auto;html=1;entryX=0;entryY=0.5;entryDx=0;entryDy=0;dashed=1;endArrow=classic;endFill=1;exitX=1;exitY=0.5;exitDx=0;exitDy=0;" parent="1" source="8HjG-4PC_yz-jviVRDcU-72" target="8HjG-4PC_yz-jviVRDcU-88" edge="1">
          <mxGeometry relative="1" as="geometry">
            <mxPoint x="496" y="530" as="sourcePoint" />
            <mxPoint x="630" y="450" as="targetPoint" />
          </mxGeometry>
        </mxCell>
        <mxCell id="8HjG-4PC_yz-jviVRDcU-94" value="공유" style="rounded=1;whiteSpace=wrap;html=1;arcSize=40;fontColor=#000000;fillColor=#ffffc0;strokeColor=#ff0000;" parent="1" vertex="1">
          <mxGeometry x="540" y="570" width="66" height="40" as="geometry" />
        </mxCell>
        <mxCell id="8HjG-4PC_yz-jviVRDcU-95" value="조회" style="rounded=1;whiteSpace=wrap;html=1;arcSize=40;fontColor=#000000;fillColor=#ffffc0;strokeColor=#ff0000;" parent="1" vertex="1">
          <mxGeometry x="407" y="570" width="66" height="40" as="geometry" />
        </mxCell>
        <mxCell id="8HjG-4PC_yz-jviVRDcU-98" value="&amp;lt;include&amp;gt;" style="rounded=0;orthogonalLoop=1;jettySize=auto;html=1;entryX=0;entryY=0.5;entryDx=0;entryDy=0;exitX=1;exitY=0.5;exitDx=0;exitDy=0;dashed=1;" parent="1" source="8HjG-4PC_yz-jviVRDcU-38" target="8HjG-4PC_yz-jviVRDcU-95" edge="1">
          <mxGeometry relative="1" as="geometry">
            <mxPoint x="304" y="565" as="sourcePoint" />
            <mxPoint x="384" y="565" as="targetPoint" />
            <mxPoint as="offset" />
          </mxGeometry>
        </mxCell>
        <mxCell id="8HjG-4PC_yz-jviVRDcU-99" value="&amp;lt;include&amp;gt;" style="rounded=0;orthogonalLoop=1;jettySize=auto;html=1;entryX=0;entryY=0.5;entryDx=0;entryDy=0;exitX=1;exitY=0.5;exitDx=0;exitDy=0;dashed=1;" parent="1" source="8HjG-4PC_yz-jviVRDcU-95" target="8HjG-4PC_yz-jviVRDcU-94" edge="1">
          <mxGeometry relative="1" as="geometry">
            <mxPoint x="350" y="600" as="sourcePoint" />
            <mxPoint x="430" y="600" as="targetPoint" />
            <mxPoint as="offset" />
          </mxGeometry>
        </mxCell>
        <mxCell id="8HjG-4PC_yz-jviVRDcU-100" value="&amp;lt;include&amp;gt;" style="edgeStyle=none;rounded=0;orthogonalLoop=1;jettySize=auto;html=1;entryX=0;entryY=0.5;entryDx=0;entryDy=0;dashed=1;endArrow=classic;endFill=1;exitX=1;exitY=0.5;exitDx=0;exitDy=0;" parent="1" source="8HjG-4PC_yz-jviVRDcU-95" target="8HjG-4PC_yz-jviVRDcU-88" edge="1">
          <mxGeometry relative="1" as="geometry">
            <mxPoint x="496" y="480" as="sourcePoint" />
            <mxPoint x="630" y="500" as="targetPoint" />
          </mxGeometry>
        </mxCell>
        <mxCell id="8HjG-4PC_yz-jviVRDcU-101" value="&amp;lt;exclude&amp;gt;" style="rounded=0;orthogonalLoop=1;jettySize=auto;html=1;entryX=0.5;entryY=0;entryDx=0;entryDy=0;exitX=0;exitY=0.75;exitDx=0;exitDy=0;dashed=1;" parent="1" source="8HjG-4PC_yz-jviVRDcU-85" target="8HjG-4PC_yz-jviVRDcU-94" edge="1">
          <mxGeometry relative="1" as="geometry">
            <mxPoint x="633" y="110" as="sourcePoint" />
            <mxPoint x="596" y="310" as="targetPoint" />
          </mxGeometry>
        </mxCell>
        <mxCell id="8HjG-4PC_yz-jviVRDcU-102" style="edgeStyle=none;rounded=0;orthogonalLoop=1;jettySize=auto;html=1;entryX=0;entryY=0.5;entryDx=0;entryDy=0;endArrow=none;endFill=0;exitX=1;exitY=0.5;exitDx=0;exitDy=0;" parent="1" source="8HjG-4PC_yz-jviVRDcU-88" target="8HjG-4PC_yz-jviVRDcU-6" edge="1">
          <mxGeometry relative="1" as="geometry">
            <mxPoint x="760" y="450" as="sourcePoint" />
            <mxPoint x="830" y="385" as="targetPoint" />
          </mxGeometry>
        </mxCell>
        <mxCell id="8HjG-4PC_yz-jviVRDcU-103" style="edgeStyle=none;rounded=0;orthogonalLoop=1;jettySize=auto;html=1;endArrow=none;endFill=0;exitX=1;exitY=0.5;exitDx=0;exitDy=0;entryX=0;entryY=0.5;entryDx=0;entryDy=0;" parent="1" source="8HjG-4PC_yz-jviVRDcU-89" target="8HjG-4PC_yz-jviVRDcU-6" edge="1">
          <mxGeometry relative="1" as="geometry">
            <mxPoint x="760" y="500" as="sourcePoint" />
            <mxPoint x="820" y="380" as="targetPoint" />
          </mxGeometry>
        </mxCell>
      </root>
    </mxGraphModel>
  </diagram>
</mxfile>
